<svg xmlns="http://www.w3.org/2000/svg" xmlns:xlink="http://www.w3.org/1999/xlink" width="500" zoomAndPan="magnify" viewBox="0 0 375 374.999991" height="500" preserveAspectRatio="xMidYMid meet" version="1.0"><defs><g/><clipPath id="c9bc68c02c"><path d="M 33.507812 200.605469 L 350.742188 200.605469 L 350.742188 237.679688 L 33.507812 237.679688 Z M 33.507812 200.605469 " clip-rule="nonzero"/></clipPath></defs><rect x="-37.5" width="450" fill="#ffffff" y="-37.499999" height="449.999989" fill-opacity="1"/><rect x="-37.5" width="450" fill="#f4f4f4" y="-37.499999" height="449.999989" fill-opacity="1"/><g fill="#3b3937" fill-opacity="1"><g transform="translate(176.410085, 273.35553)"><g><path d="M 68.53125 1.8125 C 55.445312 1.8125 44.570312 -0.972656 35.90625 -6.546875 C 27.238281 -12.117188 20.785156 -19.929688 16.546875 -29.984375 C 12.304688 -40.046875 10.1875 -51.804688 10.1875 -65.265625 C 10.1875 -78.710938 12.335938 -90.40625 16.640625 -100.34375 C 20.941406 -110.289062 27.421875 -118.019531 36.078125 -123.53125 C 44.742188 -129.039062 55.625 -131.796875 68.71875 -131.796875 C 81.082031 -131.796875 91.597656 -129.039062 100.265625 -123.53125 C 108.929688 -118.019531 115.535156 -110.265625 120.078125 -100.265625 C 124.617188 -90.265625 126.890625 -78.535156 126.890625 -65.078125 C 126.890625 -51.628906 124.617188 -39.90625 120.078125 -29.90625 C 115.535156 -19.90625 108.929688 -12.117188 100.265625 -6.546875 C 91.597656 -0.972656 81.019531 1.8125 68.53125 1.8125 Z M 68.53125 0 C 80.894531 0 89.863281 -5.148438 95.4375 -15.453125 C 101.019531 -25.753906 103.8125 -42.296875 103.8125 -65.078125 C 103.8125 -87.867188 101.019531 -104.382812 95.4375 -114.625 C 89.863281 -124.863281 80.957031 -129.984375 68.71875 -129.984375 C 56.351562 -129.984375 47.320312 -124.863281 41.625 -114.625 C 35.9375 -104.382812 33.09375 -87.867188 33.09375 -65.078125 C 33.09375 -42.296875 35.910156 -25.753906 41.546875 -15.453125 C 47.179688 -5.148438 56.175781 0 68.53125 0 Z M 68.53125 0 "/></g></g></g><g fill="#3b3937" fill-opacity="1"><g transform="translate(78.778366, 216.929283)"><g><path d="M 6.359375 0 L 6.359375 -1.8125 L 10.1875 -1.8125 C 14.425781 -1.8125 17.726562 -2.78125 20.09375 -4.71875 C 22.457031 -6.664062 23.640625 -9.941406 23.640625 -14.546875 L 23.640625 -115.796875 C 23.640625 -120.046875 22.457031 -123.140625 20.09375 -125.078125 C 17.726562 -127.015625 14.425781 -127.984375 10.1875 -127.984375 L 6.359375 -127.984375 L 6.359375 -129.796875 L 56.359375 -129.796875 C 88.472656 -129.796875 104.53125 -119.375 104.53125 -98.53125 C 104.53125 -80.476562 92.472656 -70.539062 68.359375 -68.71875 L 68.359375 -68.359375 C 82.773438 -67.867188 93.316406 -64.65625 99.984375 -58.71875 C 106.648438 -52.78125 109.984375 -44.84375 109.984375 -34.90625 C 109.984375 -11.632812 93.925781 0 61.8125 0 Z M 44.71875 -68.90625 L 55.8125 -68.90625 C 65.257812 -68.90625 71.984375 -71.113281 75.984375 -75.53125 C 79.984375 -79.957031 81.984375 -87.320312 81.984375 -97.625 C 81.984375 -108.65625 79.953125 -116.472656 75.890625 -121.078125 C 71.835938 -125.679688 65.023438 -127.984375 55.453125 -127.984375 L 44.71875 -127.984375 Z M 44.71875 -1.8125 L 60.90625 -1.8125 C 70.476562 -1.8125 77.289062 -4.359375 81.34375 -9.453125 C 85.40625 -14.546875 87.4375 -22.96875 87.4375 -34.71875 C 87.4375 -46.351562 85.4375 -54.65625 81.4375 -59.625 C 77.445312 -64.59375 70.722656 -67.078125 61.265625 -67.078125 L 44.71875 -67.078125 Z M 44.71875 -1.8125 "/></g></g></g><g clip-path="url(#c9bc68c02c)"><path fill="#f4f4f4" d="M 33.507812 200.605469 L 350.742188 200.605469 L 350.742188 237.679688 L 33.507812 237.679688 Z M 33.507812 200.605469 " fill-opacity="1" fill-rule="nonzero"/></g><g fill="#967f71" fill-opacity="1"><g transform="translate(91.222916, 228.624595)"><g><path d="M 0.890625 -1.21875 L 1.828125 -1.21875 L 1.828125 -9.75 L 0.890625 -9.75 L 0.890625 -10.96875 L 5.328125 -10.96875 C 5.847656 -10.96875 6.304688 -10.894531 6.703125 -10.75 C 7.109375 -10.601562 7.453125 -10.40625 7.734375 -10.15625 C 8.015625 -9.90625 8.222656 -9.601562 8.359375 -9.25 C 8.503906 -8.90625 8.578125 -8.53125 8.578125 -8.125 L 8.578125 -7.9375 C 8.578125 -7.625 8.53125 -7.34375 8.4375 -7.09375 C 8.34375 -6.84375 8.207031 -6.617188 8.03125 -6.421875 C 7.863281 -6.222656 7.664062 -6.050781 7.4375 -5.90625 C 7.21875 -5.769531 6.976562 -5.664062 6.71875 -5.59375 L 6.71875 -5.40625 C 7.238281 -5.257812 7.675781 -4.976562 8.03125 -4.5625 C 8.394531 -4.15625 8.578125 -3.65625 8.578125 -3.0625 L 8.578125 -2.875 C 8.578125 -2.457031 8.503906 -2.070312 8.359375 -1.71875 C 8.222656 -1.375 8.015625 -1.070312 7.734375 -0.8125 C 7.453125 -0.5625 7.109375 -0.363281 6.703125 -0.21875 C 6.304688 -0.0703125 5.847656 0 5.328125 0 L 0.890625 0 Z M 3.15625 -1.21875 L 5.234375 -1.21875 C 5.847656 -1.21875 6.347656 -1.367188 6.734375 -1.671875 C 7.117188 -1.984375 7.3125 -2.414062 7.3125 -2.96875 L 7.3125 -3.0625 C 7.3125 -3.625 7.128906 -4.066406 6.765625 -4.390625 C 6.398438 -4.722656 5.90625 -4.890625 5.28125 -4.890625 L 3.15625 -4.890625 Z M 3.15625 -6.109375 L 5.28125 -6.109375 C 5.90625 -6.109375 6.398438 -6.269531 6.765625 -6.59375 C 7.128906 -6.914062 7.3125 -7.363281 7.3125 -7.9375 L 7.3125 -8.03125 C 7.3125 -8.5625 7.117188 -8.976562 6.734375 -9.28125 C 6.347656 -9.59375 5.847656 -9.75 5.234375 -9.75 L 3.15625 -9.75 Z M 3.15625 -6.109375 "/></g></g></g><g fill="#967f71" fill-opacity="1"><g transform="translate(100.811748, 228.624595)"><g/></g></g><g fill="#967f71" fill-opacity="1"><g transform="translate(110.400581, 228.624595)"><g><path d="M 1.46875 -10.96875 L 8.125 -10.96875 L 8.125 -9.75 L 2.796875 -9.75 L 2.796875 -6.109375 L 8.03125 -6.109375 L 8.03125 -4.890625 L 2.796875 -4.890625 L 2.796875 -1.21875 L 8.21875 -1.21875 L 8.21875 0 L 1.46875 0 Z M 1.46875 -10.96875 "/></g></g></g><g fill="#967f71" fill-opacity="1"><g transform="translate(119.989413, 228.624595)"><g/></g></g><g fill="#967f71" fill-opacity="1"><g transform="translate(129.578245, 228.624595)"><g><path d="M 1.140625 -10.96875 L 4.75 -10.96875 C 6.101562 -10.96875 7.09375 -10.644531 7.71875 -10 C 8.351562 -9.351562 8.671875 -8.316406 8.671875 -6.890625 L 8.671875 -4.078125 C 8.671875 -2.648438 8.351562 -1.613281 7.71875 -0.96875 C 7.09375 -0.320312 6.101562 0 4.75 0 L 1.140625 0 L 1.140625 -1.234375 L 2.078125 -1.234375 L 2.078125 -9.75 L 1.140625 -9.75 Z M 4.5625 -1.21875 C 5.039062 -1.21875 5.453125 -1.265625 5.796875 -1.359375 C 6.148438 -1.453125 6.441406 -1.609375 6.671875 -1.828125 C 6.898438 -2.054688 7.066406 -2.359375 7.171875 -2.734375 C 7.285156 -3.117188 7.34375 -3.597656 7.34375 -4.171875 L 7.34375 -6.796875 C 7.34375 -7.367188 7.285156 -7.84375 7.171875 -8.21875 C 7.066406 -8.601562 6.898438 -8.90625 6.671875 -9.125 C 6.441406 -9.351562 6.148438 -9.515625 5.796875 -9.609375 C 5.453125 -9.703125 5.039062 -9.75 4.5625 -9.75 L 3.40625 -9.75 L 3.40625 -1.21875 Z M 4.5625 -1.21875 "/></g></g></g><g fill="#967f71" fill-opacity="1"><g transform="translate(139.167077, 228.624595)"><g/></g></g><g fill="#967f71" fill-opacity="1"><g transform="translate(148.755909, 228.624595)"><g><path d="M 1.3125 -10.96875 L 8.28125 -10.96875 L 8.28125 -9.75 L 5.453125 -9.75 L 5.453125 -1.21875 L 8.28125 -1.21875 L 8.28125 0 L 1.3125 0 L 1.3125 -1.21875 L 4.140625 -1.21875 L 4.140625 -9.75 L 1.3125 -9.75 Z M 1.3125 -10.96875 "/></g></g></g><g fill="#967f71" fill-opacity="1"><g transform="translate(158.347912, 228.624595)"><g/></g></g><g fill="#967f71" fill-opacity="1"><g transform="translate(167.936744, 228.624595)"><g/></g></g><g fill="#967f71" fill-opacity="1"><g transform="translate(177.525576, 228.624595)"><g/></g></g><g fill="#967f71" fill-opacity="1"><g transform="translate(187.114408, 228.624595)"><g/></g></g><g fill="#967f71" fill-opacity="1"><g transform="translate(196.703378, 228.624595)"><g><path d="M 0.9375 -6.703125 C 0.9375 -8.128906 1.273438 -9.234375 1.953125 -10.015625 C 2.640625 -10.796875 3.585938 -11.1875 4.796875 -11.1875 C 6.003906 -11.1875 6.945312 -10.796875 7.625 -10.015625 C 8.3125 -9.234375 8.65625 -8.128906 8.65625 -6.703125 L 8.65625 -4.265625 C 8.65625 -2.796875 8.3125 -1.679688 7.625 -0.921875 C 6.945312 -0.160156 6.003906 0.21875 4.796875 0.21875 C 3.585938 0.21875 2.640625 -0.160156 1.953125 -0.921875 C 1.273438 -1.679688 0.9375 -2.796875 0.9375 -4.265625 Z M 4.796875 -1 C 5.640625 -1 6.269531 -1.289062 6.6875 -1.875 C 7.113281 -2.457031 7.328125 -3.285156 7.328125 -4.359375 L 7.328125 -6.609375 C 7.328125 -7.617188 7.113281 -8.429688 6.6875 -9.046875 C 6.269531 -9.660156 5.640625 -9.96875 4.796875 -9.96875 C 3.953125 -9.96875 3.316406 -9.660156 2.890625 -9.046875 C 2.460938 -8.429688 2.25 -7.617188 2.25 -6.609375 L 2.25 -4.359375 C 2.25 -3.285156 2.460938 -2.457031 2.890625 -1.875 C 3.316406 -1.289062 3.953125 -1 4.796875 -1 Z M 4.796875 -1 "/></g></g></g><g fill="#967f71" fill-opacity="1"><g transform="translate(206.29221, 228.624595)"><g/></g></g><g fill="#967f71" fill-opacity="1"><g transform="translate(215.881042, 228.624595)"><g><path d="M 0.71875 -10.96875 L 3.234375 -10.96875 L 4.703125 -0.5625 L 4.890625 -0.5625 L 6.359375 -10.96875 L 8.875 -10.96875 L 8.875 0 L 7.640625 0 L 7.640625 -10.40625 L 7.453125 -10.40625 L 5.984375 0 L 3.609375 0 L 2.125 -10.40625 L 1.9375 -10.40625 L 1.9375 0 L 0.71875 0 Z M 0.71875 -10.96875 "/></g></g></g><g fill="#967f71" fill-opacity="1"><g transform="translate(225.469875, 228.624595)"><g/></g></g><g fill="#967f71" fill-opacity="1"><g transform="translate(235.058707, 228.624595)"><g><path d="M 2.34375 -10.96875 L 2.34375 -3.703125 C 2.34375 -2.804688 2.550781 -2.128906 2.96875 -1.671875 C 3.382812 -1.222656 3.992188 -1 4.796875 -1 C 5.597656 -1 6.203125 -1.222656 6.609375 -1.671875 C 7.023438 -2.128906 7.234375 -2.804688 7.234375 -3.703125 L 7.234375 -10.96875 L 8.5625 -10.96875 L 8.5625 -3.703125 C 8.5625 -2.421875 8.222656 -1.445312 7.546875 -0.78125 C 6.878906 -0.113281 5.960938 0.21875 4.796875 0.21875 C 3.628906 0.21875 2.707031 -0.113281 2.03125 -0.78125 C 1.363281 -1.445312 1.03125 -2.421875 1.03125 -3.703125 L 1.03125 -10.96875 Z M 2.34375 -10.96875 "/></g></g></g><g fill="#967f71" fill-opacity="1"><g transform="translate(244.647539, 228.624595)"><g/></g></g><g fill="#967f71" fill-opacity="1"><g transform="translate(254.236371, 228.624595)"><g><path d="M 8.234375 0 L 6.90625 0 L 6.90625 -3.671875 C 6.90625 -3.941406 6.84375 -4.148438 6.71875 -4.296875 C 6.59375 -4.441406 6.375 -4.515625 6.0625 -4.515625 L 2.65625 -4.515625 L 2.65625 0 L 1.328125 0 L 1.328125 -10.96875 L 5.25 -10.96875 C 5.8125 -10.96875 6.300781 -10.882812 6.71875 -10.71875 C 7.132812 -10.5625 7.484375 -10.347656 7.765625 -10.078125 C 8.046875 -9.804688 8.253906 -9.488281 8.390625 -9.125 C 8.535156 -8.769531 8.609375 -8.394531 8.609375 -8 L 8.609375 -7.515625 C 8.609375 -7.109375 8.492188 -6.703125 8.265625 -6.296875 C 8.046875 -5.890625 7.695312 -5.578125 7.21875 -5.359375 L 7.21875 -5.171875 C 7.53125 -5.117188 7.773438 -4.992188 7.953125 -4.796875 C 8.140625 -4.597656 8.234375 -4.316406 8.234375 -3.953125 Z M 2.65625 -5.734375 L 5.09375 -5.734375 C 5.832031 -5.734375 6.378906 -5.890625 6.734375 -6.203125 C 7.097656 -6.523438 7.28125 -6.992188 7.28125 -7.609375 L 7.28125 -7.90625 C 7.28125 -8.457031 7.097656 -8.898438 6.734375 -9.234375 C 6.378906 -9.578125 5.832031 -9.75 5.09375 -9.75 L 2.65625 -9.75 Z M 2.65625 -5.734375 "/></g></g></g><g fill="#967f71" fill-opacity="1"><g transform="translate(263.825204, 228.624595)"><g/></g></g><g fill="#967f71" fill-opacity="1"><g transform="translate(273.414036, 228.624595)"><g><path d="M 1.3125 -10.96875 L 8.28125 -10.96875 L 8.28125 -9.75 L 5.453125 -9.75 L 5.453125 -1.21875 L 8.28125 -1.21875 L 8.28125 0 L 1.3125 0 L 1.3125 -1.21875 L 4.140625 -1.21875 L 4.140625 -9.75 L 1.3125 -9.75 Z M 1.3125 -10.96875 "/></g></g></g><g fill="#967f71" fill-opacity="1"><g transform="translate(283.01197, 228.624595)"><g/></g></g></svg>