<svg xmlns="http://www.w3.org/2000/svg" xmlns:xlink="http://www.w3.org/1999/xlink" width="500" zoomAndPan="magnify" viewBox="0 0 375 374.999991" height="500" preserveAspectRatio="xMidYMid meet" version="1.0"><defs><g/><clipPath id="02f9211649"><path d="M 107 142 L 246.621094 142 L 246.621094 256.347656 L 107 256.347656 Z M 107 142 " clip-rule="nonzero"/></clipPath><clipPath id="96b343e279"><path d="M 69.621094 128.144531 L 142 128.144531 L 142 172 L 69.621094 172 Z M 69.621094 128.144531 " clip-rule="nonzero"/></clipPath></defs><g clip-path="url(#02f9211649)"><path fill="#17a3a3" d="M 223.164062 237.277344 C 222 236.113281 220.386719 235.390625 218.605469 235.390625 C 216.824219 235.390625 215.207031 236.113281 214.042969 237.277344 C 212.875 238.445312 212.152344 240.058594 212.152344 241.839844 C 212.152344 243.621094 212.875 245.234375 214.042969 246.402344 C 215.207031 247.566406 216.824219 248.289062 218.605469 248.289062 C 220.386719 248.289062 222 247.566406 223.164062 246.402344 C 224.332031 245.234375 225.054688 243.621094 225.054688 241.839844 C 225.054688 240.058594 224.332031 238.445312 223.164062 237.277344 M 145.832031 178.035156 C 149.097656 168.375 155.085938 159.980469 162.878906 153.769531 C 171.851562 146.621094 183.214844 142.347656 195.558594 142.347656 C 207.746094 142.347656 218.980469 146.519531 227.90625 153.519531 C 237.011719 160.660156 243.703125 170.75 246.542969 182.351562 L 235.878906 184.933594 C 233.636719 175.773438 228.351562 167.804688 221.15625 162.164062 C 214.121094 156.644531 205.230469 153.355469 195.558594 153.355469 C 185.78125 153.355469 176.796875 156.726562 169.714844 162.371094 C 163.699219 167.164062 159.042969 173.585938 156.425781 180.964844 C 157.660156 181.527344 158.851562 182.160156 160 182.855469 C 165.421875 186.140625 169.875 190.867188 172.824219 196.5 L 163.105469 201.574219 C 161.085938 197.714844 158.039062 194.476562 154.324219 192.230469 C 150.769531 190.074219 146.5625 188.835938 142.03125 188.835938 C 135.46875 188.835938 129.53125 191.492188 125.234375 195.789062 C 120.9375 200.085938 118.28125 206.023438 118.28125 212.585938 C 118.28125 219.144531 120.9375 225.082031 125.234375 229.382812 C 129.53125 233.679688 135.46875 236.335938 142.03125 236.335938 L 204.964844 236.335938 C 205.710938 234.488281 206.820312 232.828125 208.207031 231.441406 C 210.867188 228.78125 214.542969 227.132812 218.605469 227.132812 C 222.664062 227.132812 226.34375 228.78125 229.003906 231.441406 C 231.664062 234.101562 233.3125 237.78125 233.3125 241.839844 C 233.3125 245.902344 231.664062 249.578125 229.003906 252.238281 C 226.34375 254.898438 222.664062 256.546875 218.605469 256.546875 C 214.542969 256.546875 210.867188 254.898438 208.207031 252.238281 C 206.820312 250.851562 205.710938 249.191406 204.964844 247.34375 L 142.03125 247.34375 C 132.433594 247.34375 123.742188 243.453125 117.453125 237.164062 C 111.164062 230.875 107.273438 222.179688 107.273438 212.585938 C 107.273438 202.988281 111.164062 194.300781 117.453125 188.007812 C 123.742188 181.71875 132.433594 177.828125 142.03125 177.828125 C 143.3125 177.828125 144.582031 177.898438 145.832031 178.035156 Z M 145.832031 178.035156 " fill-opacity="1" fill-rule="nonzero"/></g><g clip-path="url(#96b343e279)"><path fill="#17a3a3" d="M 103.914062 132.703125 L 103.917969 132.699219 L 103.9375 132.699219 C 104.050781 132.683594 104.167969 132.675781 104.28125 132.664062 L 104.300781 132.664062 L 104.46875 132.652344 L 104.480469 132.648438 L 104.648438 132.636719 L 104.664062 132.636719 L 104.835938 132.628906 L 104.847656 132.625 L 105.019531 132.617188 L 105.027344 132.617188 L 105.207031 132.609375 L 105.210938 132.609375 L 105.394531 132.605469 L 105.582031 132.601562 L 105.953125 132.601562 L 106.136719 132.605469 L 106.140625 132.605469 L 106.320312 132.609375 L 106.328125 132.609375 L 106.503906 132.617188 L 106.511719 132.617188 L 106.6875 132.625 L 106.699219 132.628906 L 106.871094 132.636719 L 106.882812 132.636719 L 107.054688 132.648438 L 107.066406 132.652344 L 107.234375 132.664062 L 107.25 132.664062 C 107.367188 132.675781 107.484375 132.683594 107.597656 132.699219 L 107.617188 132.699219 L 107.621094 132.703125 C 110.902344 133.054688 113.898438 134.34375 116.339844 136.289062 C 118.800781 138.25 120.707031 140.878906 121.777344 143.894531 C 121.273438 144.125 120.785156 144.382812 120.3125 144.667969 C 118.097656 146.011719 116.273438 147.945312 115.066406 150.25 L 119.042969 152.324219 C 119.871094 150.746094 121.117188 149.421875 122.636719 148.503906 C 124.089844 147.621094 125.8125 147.113281 127.664062 147.113281 C 130.347656 147.113281 132.78125 148.203125 134.539062 149.960938 C 136.296875 151.71875 137.382812 154.148438 137.382812 156.832031 C 137.382812 159.511719 136.296875 161.945312 134.539062 163.703125 C 132.78125 165.460938 130.347656 166.546875 127.664062 166.546875 L 83.867188 166.546875 C 81.183594 166.546875 78.753906 165.460938 76.996094 163.703125 C 75.238281 161.945312 74.152344 159.511719 74.152344 156.832031 C 74.152344 154.148438 75.238281 151.71875 76.996094 149.960938 C 78.753906 148.203125 81.183594 147.113281 83.867188 147.113281 C 85.722656 147.113281 87.441406 147.621094 88.898438 148.503906 C 90.417969 149.421875 91.664062 150.746094 92.488281 152.324219 L 96.46875 150.25 C 95.257812 147.945312 93.4375 146.011719 91.21875 144.667969 C 90.75 144.382812 90.261719 144.125 89.757812 143.894531 C 90.828125 140.878906 92.734375 138.25 95.195312 136.289062 C 97.636719 134.34375 100.632812 133.054688 103.914062 132.703125 M 126.109375 142.695312 C 124.773438 138.746094 122.324219 135.3125 119.136719 132.769531 C 115.976562 130.25 112.089844 128.605469 107.84375 128.195312 L 107.640625 128.179688 L 107.617188 128.175781 L 107.386719 128.15625 L 107.175781 128.144531 L 107.15625 128.140625 L 106.941406 128.128906 L 106.929688 128.128906 L 106.707031 128.117188 L 106.699219 128.117188 L 106.472656 128.109375 L 106.464844 128.109375 L 106.238281 128.105469 L 106.234375 128.105469 L 106.003906 128.101562 L 106 128.101562 L 105.765625 128.097656 L 105.535156 128.101562 L 105.296875 128.101562 L 105.066406 128.109375 L 105.058594 128.109375 L 104.835938 128.117188 L 104.824219 128.117188 L 104.605469 128.128906 L 104.589844 128.128906 L 104.375 128.140625 L 104.355469 128.140625 L 104.144531 128.15625 L 103.917969 128.175781 L 103.894531 128.179688 L 103.6875 128.195312 C 99.445312 128.605469 95.558594 130.253906 92.398438 132.769531 C 89.207031 135.3125 86.757812 138.746094 85.421875 142.695312 C 84.910156 142.640625 84.394531 142.613281 83.867188 142.613281 C 79.941406 142.613281 76.386719 144.203125 73.8125 146.777344 C 71.242188 149.347656 69.648438 152.90625 69.648438 156.832031 C 69.648438 160.757812 71.242188 164.3125 73.8125 166.886719 C 76.386719 169.460938 79.941406 171.050781 83.867188 171.050781 L 127.664062 171.050781 C 131.59375 171.050781 135.148438 169.460938 137.722656 166.886719 C 140.292969 164.3125 141.886719 160.757812 141.886719 156.832031 C 141.886719 152.90625 140.292969 149.351562 137.722656 146.777344 C 135.148438 144.203125 131.59375 142.613281 127.664062 142.613281 C 127.140625 142.613281 126.621094 142.640625 126.109375 142.695312 Z M 126.109375 142.695312 " fill-opacity="1" fill-rule="nonzero"/></g><g fill="#ff00ff" fill-opacity="1"><g transform="translate(196.624819, 255.427513)"><g/></g></g><g fill="#00ffff" fill-opacity="1"><g transform="translate(191.088765, 256.959826)"><g/></g></g><g fill="#17a3a3" fill-opacity="1"><g transform="translate(193.856791, 256.19367)"><g/></g></g><g fill="#ff00ff" fill-opacity="1"><g transform="translate(239.346275, 243.602815)"><g><path d="M 48.574219 -13.445312 C 54.933594 -15.203125 58.558594 -21.824219 56.839844 -28.039062 L 47.351562 -62.324219 C 45.609375 -68.613281 39.042969 -72.332031 32.757812 -70.589844 L -1.53125 -61.101562 C -7.816406 -59.359375 -11.535156 -52.792969 -9.796875 -46.507812 L -0.304688 -12.21875 C 1.433594 -5.933594 8 -2.214844 14.285156 -3.953125 Z M 1.632812 -49.671875 L 35.921875 -59.160156 L 45.410156 -24.875 L 11.125 -15.382812 Z M 1.632812 -49.671875 "/></g></g></g><g fill="#00ffff" fill-opacity="1"><g transform="translate(233.810221, 245.135129)"><g><path d="M 48.574219 -13.445312 C 54.933594 -15.203125 58.558594 -21.824219 56.839844 -28.039062 L 47.351562 -62.324219 C 45.609375 -68.613281 39.042969 -72.332031 32.757812 -70.589844 L -1.53125 -61.101562 C -7.816406 -59.359375 -11.535156 -52.792969 -9.796875 -46.507812 L -0.304688 -12.21875 C 1.433594 -5.933594 8 -2.214844 14.285156 -3.953125 Z M 1.632812 -49.671875 L 35.921875 -59.160156 L 45.410156 -24.875 L 11.125 -15.382812 Z M 1.632812 -49.671875 "/></g></g></g><g fill="#17a3a3" fill-opacity="1"><g transform="translate(236.578247, 244.368972)"><g><path d="M 48.574219 -13.445312 C 54.933594 -15.203125 58.558594 -21.824219 56.839844 -28.039062 L 47.351562 -62.324219 C 45.609375 -68.613281 39.042969 -72.332031 32.757812 -70.589844 L -1.53125 -61.101562 C -7.816406 -59.359375 -11.535156 -52.792969 -9.796875 -46.507812 L -0.304688 -12.21875 C 1.433594 -5.933594 8 -2.214844 14.285156 -3.953125 Z M 1.632812 -49.671875 L 35.921875 -59.160156 L 45.410156 -24.875 L 11.125 -15.382812 Z M 1.632812 -49.671875 "/></g></g></g></svg>